# xmcd
#
# Track frame offsets:
#	150
#	20736
#	46672
#	77688
#	111841
#	148073
#	161943
#	183477
#	207154
#
# Disc length: 3165 seconds
#
# Revision: 1
# Processed by: cddbd v1.5.1PL0 Copyright (c) Steve Scherf et al.
# Submitted via: EasyCDDAExtractor 6.5.0.1
#
DISCID=7a0c5b09
DTITLE=Linsey Alexander - Someone's Cookin' In My Kitchen
DYEAR=2003
DGENRE=Blues
TTITLE0=Come Back Baby
TTITLE1=Booty Call 2003
TTITLE2=How Can I Get Over You
TTITLE3=The Train is Coming
TTITLE4=Hoochie Man
TTITLE5=Funny Feeling
TTITLE6=Someone's Cookin' in my Kitchen
TTITLE7=Been There - Done That
TTITLE8=Going Home
EXTD=
EXTT0=
EXTT1=
EXTT2=
EXTT3=
EXTT4=
EXTT5=
EXTT6=
EXTT7=
EXTT8=
PLAYORDER=
